<svg xmlns="http://www.w3.org/2000/svg" xmlns:xlink="http://www.w3.org/1999/xlink" viewBox="-3.3000000000000003 -4.1000000000000005 72.6 55.35" version="1.1" x="0px" y="0px"><title>Rectangle 19</title><desc>Created with Sketch.</desc><g stroke="none" stroke-width="1" fill="none" fill-rule="evenodd"><g fill="#000000"><rect transform="translate(20.000000, 2.000000) rotate(-270.000000) translate(-20.000000, -2.000000) " x="18" y="-18" width="4" height="40" rx="2"/><rect transform="translate(18.000000, 14.000000) rotate(-270.000000) translate(-18.000000, -14.000000) " x="16" y="-4" width="4" height="36" rx="2"/><rect transform="translate(15.000000, 26.000000) rotate(-270.000000) translate(-15.000000, -26.000000) " x="13" y="11" width="4" height="30" rx="2"/><rect transform="translate(12.000000, 38.000000) rotate(-270.000000) translate(-12.000000, -38.000000) " x="10" y="26" width="4" height="24" rx="2"/><rect transform="translate(50.384776, 33.756544) rotate(-45.000000) translate(-50.384776, -33.756544) " x="48.3847763" y="25.7565445" width="4" height="16" rx="2"/><rect transform="translate(58.870058, 33.756544) rotate(-315.000000) translate(-58.870058, -33.756544) " x="56.8700577" y="25.7565445" width="4" height="16" rx="2"/><rect transform="translate(54.627417, 20.000000) rotate(-360.000000) translate(-54.627417, -20.000000) " x="52.627417" y="9.87654403e-13" width="4" height="40" rx="2"/></g></g><text x="0.0" y="48.175000000000004" font-size="2.0500000000000003" font-weight="bold" font-family="Arbeit Regular, Helvetica, Arial-Unicode, Arial, Sans-serif" fill="#000000">Created by Timur Minvaleev</text><text x="0.0" y="50.225" font-size="2.0500000000000003" font-weight="bold" font-family="Arbeit Regular, Helvetica, Arial-Unicode, Arial, Sans-serif" fill="#000000">from Noun Project</text></svg>